<?xml version="1.0" encoding="UTF-8" standalone="no"?>
<!-- Created with Inkscape (http://www.inkscape.org/) -->

<svg
   xmlns:dc="http://purl.org/dc/elements/1.1/"
   xmlns:cc="http://creativecommons.org/ns#"
   xmlns:rdf="http://www.w3.org/1999/02/22-rdf-syntax-ns#"
   xmlns:svg="http://www.w3.org/2000/svg"
   xmlns="http://www.w3.org/2000/svg"
   xmlns:sodipodi="http://sodipodi.sourceforge.net/DTD/sodipodi-0.dtd"
   xmlns:inkscape="http://www.inkscape.org/namespaces/inkscape"
   width="380"
   height="280"
   viewBox="0 0 100.54166 74.083335"
   version="1.1"
   id="svg8"
   inkscape:version="0.92.5 (2060ec1f9f, 2020-04-08)"
   sodipodi:docname="break.svg">
  <defs
     id="defs2">
    <clipPath
       clipPathUnits="userSpaceOnUse"
       id="clipPath1091">
      <rect
         style="opacity:1;fill:#1a1a1a;fill-opacity:1;stroke:none;stroke-width:0.52916664;stroke-linecap:round;stroke-linejoin:round;stroke-miterlimit:4;stroke-dasharray:none;stroke-dashoffset:0;stroke-opacity:1;paint-order:normal"
         id="rect1093"
         width="211.66666"
         height="132.29167"
         x="0"
         y="164.70831" />
    </clipPath>
    <pattern
       y="0"
       x="0"
       height="6"
       width="6"
       patternUnits="userSpaceOnUse"
       id="EMFhbasepattern" />
  </defs>
  <sodipodi:namedview
     id="base"
     pagecolor="#ffffff"
     bordercolor="#666666"
     borderopacity="1.0"
     inkscape:pageopacity="0.0"
     inkscape:pageshadow="2"
     inkscape:zoom="1.7630192"
     inkscape:cx="217.58561"
     inkscape:cy="198.60896"
     inkscape:document-units="mm"
     inkscape:current-layer="g1178"
     showgrid="false"
     fit-margin-top="0"
     fit-margin-left="0"
     fit-margin-right="0"
     fit-margin-bottom="0"
     units="px"
     inkscape:window-width="1600"
     inkscape:window-height="837"
     inkscape:window-x="-8"
     inkscape:window-y="-8"
     inkscape:window-maximized="1"
     inkscape:snap-global="false" />
  <metadata
     id="metadata5">
    <rdf:RDF>
      <cc:Work
         rdf:about="">
        <dc:format>image/svg+xml</dc:format>
        <dc:type
           rdf:resource="http://purl.org/dc/dcmitype/StillImage" />
        <dc:title />
      </cc:Work>
    </rdf:RDF>
  </metadata>
  <g
     inkscape:label="Layer 1"
     inkscape:groupmode="layer"
     id="layer1"
     transform="translate(0,-222.91665)">
    <rect
       style="opacity:1;fill:#212840;fill-opacity:1;stroke:none;stroke-width:0.29999998;stroke-linecap:round;stroke-linejoin:round;stroke-miterlimit:4;stroke-dasharray:none;stroke-dashoffset:0;stroke-opacity:1;paint-order:normal"
       id="rect8370-1"
       width="100.54166"
       height="74.083336"
       x="8.8817842e-16"
       y="222.91664" />
    <flowRoot
       xml:space="preserve"
       id="flowRoot882"
       style="font-style:normal;font-variant:normal;font-weight:normal;font-stretch:normal;font-size:192px;line-height:1.25;font-family:'goodvibes regular';-inkscape-font-specification:'goodvibes regular, ';letter-spacing:0px;word-spacing:0px"><flowRegion
         id="flowRegion884"><rect
           id="rect886"
           width="643.08972"
           height="381.68417"
           x="367.25073"
           y="-204.0309" /></flowRegion><flowPara
         id="flowPara888" /></flowRoot>    <g
       id="g1178"
       transform="translate(1.4636744,-5.1242892)">
      <path
         inkscape:connector-curvature="0"
         style="fill:#72d8ff;fill-opacity:1;fill-rule:nonzero;stroke:#000000;stroke-width:0.25399813px;stroke-linecap:butt;stroke-linejoin:miter;stroke-miterlimit:4;stroke-dasharray:none;stroke-opacity:1"
         d="m 5.2349901,247.28394 21.5359229,12.27047 v 24.54094 L 5.2349901,271.82487 Z"
         id="path903" />
      <path
         inkscape:connector-curvature="0"
         style="fill:#333333;fill-opacity:1;fill-rule:nonzero;stroke:#000000;stroke-width:0.25399813px;stroke-linecap:butt;stroke-linejoin:miter;stroke-miterlimit:4;stroke-dasharray:none;stroke-opacity:1"
         d="m 2.5372428,242.68738 13.4624192,7.66742 13.462419,7.66742 v 30.66969 L 2.5372428,273.35707 Z"
         id="path905" />
      <path
         inkscape:connector-curvature="0"
         style="fill:#ececec;fill-opacity:1;fill-rule:nonzero;stroke:#000000;stroke-width:0.25399813px;stroke-linecap:butt;stroke-linejoin:miter;stroke-miterlimit:4;stroke-dasharray:none;stroke-opacity:1"
         d="m 2.5372428,242.68738 2.6977473,-1.53869 26.9182579,15.34134 -2.691167,1.53219 z"
         id="path907" />
      <path
         inkscape:connector-curvature="0"
         style="fill:#e6e6e6;fill-opacity:1;fill-rule:nonzero;stroke:none;stroke-width:0.26458332"
         d="m 5.2349901,247.28394 21.5359229,12.27047 v 24.54094 L 5.2349901,271.82487 Z"
         id="path909" />
      <path
         inkscape:connector-curvature="0"
         style="fill:#c4c4c4;fill-opacity:1;fill-rule:nonzero;stroke:#000000;stroke-width:0.25399813px;stroke-linecap:butt;stroke-linejoin:miter;stroke-miterlimit:4;stroke-dasharray:none;stroke-opacity:1"
         d="m 29.462081,288.69191 2.691167,-1.53219 v -30.66969 l -2.691167,1.53219 z"
         id="path911" />
      <path
         inkscape:connector-curvature="0"
         style="fill:#72d8ff;fill-opacity:1;fill-rule:nonzero;stroke:none;stroke-width:0.26458332"
         d="m 5.2349901,247.28394 21.5359229,12.27047 v 3.07086 L 5.2349901,250.3548 Z"
         id="path913" />
      <path
         inkscape:connector-curvature="0"
         style="fill:#000000;fill-opacity:1;fill-rule:nonzero;stroke:none;stroke-width:0.26458332"
         d="m 10.9529,260.46333 c 0.368472,0.2532 0.671146,0.55184 0.901442,0.90243 0.230295,0.34409 0.348733,0.72714 0.348733,1.15563 0,0.49991 -0.171076,0.77259 -0.513229,0.82453 -0.342154,0.0454 -0.822485,-0.10388 -1.434413,-0.44797 l -1.4738912,-0.84401 v -5.33667 l 1.2106971,0.68818 c 0.6250871,0.35707 1.1054181,0.74661 1.4409911,1.16212 0.342154,0.41551 0.51323,0.84401 0.51323,1.28549 0,0.33109 -0.09212,0.53886 -0.276354,0.63624 -0.177656,0.10387 -0.414532,0.0909 -0.717206,-0.0259 z m -1.6976071,-3.08385 v 1.95419 l 1.0922591,0.62326 c 0.335573,0.18827 0.605348,0.25969 0.809325,0.20126 0.203975,-0.0584 0.309253,-0.24021 0.309253,-0.54535 0,-0.35058 -0.118438,-0.66872 -0.361893,-0.95437 -0.236876,-0.28567 -0.592189,-0.56483 -1.06594,-0.83102 z m 1.0001401,5.12893 c 0.973822,0.55185 1.454152,0.46095 1.454152,-0.26618 0,-0.38305 -0.118437,-0.74013 -0.361893,-1.06474 -0.236875,-0.31813 -0.552709,-0.59081 -0.947502,-0.81804 l -1.1448971,-0.64923 v 2.22687 z"
         id="path915" />
      <path
         inkscape:connector-curvature="0"
         style="fill:#000000;fill-opacity:1;fill-rule:nonzero;stroke:none;stroke-width:0.26458332"
         d="m 14.144138,265.19623 c -0.223716,-0.12984 -0.401373,-0.29864 -0.532969,-0.49992 -0.125018,-0.20125 -0.190818,-0.42849 -0.190818,-0.68817 v -5.04453 l 0.460592,0.20775 v 5.08348 c 0,0.26619 0.105278,0.46095 0.328993,0.58431 0.111858,0.0649 0.203976,0.10388 0.282936,0.11037 l 0.125016,0.40901 c -0.144757,-0.013 -0.302674,-0.0649 -0.47375,-0.1623 z"
         id="path917" />
      <path
         inkscape:connector-curvature="0"
         style="fill:#000000;fill-opacity:1;fill-rule:nonzero;stroke:none;stroke-width:0.26458332"
         d="m 17.07218,262.61878 c 0.54613,0.31163 0.967242,0.74012 1.276497,1.28547 0.309253,0.54537 0.46717,1.14914 0.46717,1.81786 0,0.65572 -0.157917,1.0907 -0.473751,1.29197 -0.315834,0.20125 -0.736945,0.14931 -1.283075,-0.15582 -0.546129,-0.31164 -0.973821,-0.74662 -1.283075,-1.29846 -0.309254,-0.55185 -0.46059,-1.15564 -0.46059,-1.81785 0,-0.42849 0.07238,-0.7661 0.217134,-1.00631 0.138178,-0.24022 0.342154,-0.37007 0.60535,-0.38954 0.263193,-0.0259 0.572448,0.0649 0.93434,0.27268 z m 0,0.37656 c -0.401371,-0.22724 -0.710625,-0.25321 -0.93434,-0.0844 -0.223717,0.1688 -0.328994,0.53886 -0.328994,1.11019 0,0.56483 0.105277,1.05825 0.322413,1.48024 0.217136,0.42201 0.53297,0.74662 0.927762,0.97385 0.401372,0.22724 0.710627,0.2532 0.934342,0.0844 0.223716,-0.1688 0.335573,-0.53887 0.335573,-1.11018 0,-0.57133 -0.105277,-1.05825 -0.328993,-1.47376 -0.217135,-0.422 -0.52639,-0.74662 -0.927763,-0.98034 z"
         id="path919" />
      <path
         inkscape:connector-curvature="0"
         style="fill:#000000;fill-opacity:1;fill-rule:nonzero;stroke:none;stroke-width:0.26458332"
         d="m 23.217782,266.29343 c -0.250035,-0.0779 -0.631668,-0.25969 -1.144898,-0.53886 0.473751,0.48692 0.704046,0.98683 0.704046,1.50621 0,0.40253 -0.131597,0.64923 -0.401371,0.74662 -0.269776,0.0909 -0.631669,0.006 -1.09226,-0.25321 -0.203976,-0.11685 -0.381632,-0.2467 -0.53297,-0.38304 -0.0987,0 -0.177656,0.0195 -0.236875,0.0715 -0.05264,0.0519 -0.07896,0.11686 -0.07896,0.21424 0,0.27917 0.217136,0.54536 0.651407,0.79207 l 0.671147,0.38305 c 0.407953,0.22723 0.730367,0.51289 0.967241,0.844 0.236876,0.3311 0.361893,0.64923 0.361893,0.95436 0,0.37656 -0.151336,0.57782 -0.447431,0.61029 -0.302674,0.0325 -0.750105,-0.12336 -1.342294,-0.46096 -0.618508,-0.35059 -1.059359,-0.69468 -1.329135,-1.03877 -0.263194,-0.3311 -0.394791,-0.70117 -0.394791,-1.11019 l 0.427691,0.24022 c 0.0065,0.20126 0.04605,0.38304 0.125018,0.53887 0.07896,0.1623 0.210556,0.31811 0.394792,0.47394 0.184237,0.1558 0.440852,0.33109 0.776425,0.51938 0.460591,0.26618 0.796165,0.38953 1.006721,0.37655 0.210556,-0.013 0.315833,-0.14283 0.315833,-0.38954 0,-0.22074 -0.07896,-0.43498 -0.243454,-0.63624 -0.164497,-0.21424 -0.394793,-0.40253 -0.684307,-0.57133 l -0.671147,-0.38305 c -0.328994,-0.18827 -0.57903,-0.39603 -0.763265,-0.63624 -0.171078,-0.23372 -0.256616,-0.45446 -0.256616,-0.66221 0,-0.13634 0.03948,-0.24022 0.118438,-0.31164 0.07896,-0.0779 0.190816,-0.11686 0.328993,-0.12335 -0.236875,-0.2532 -0.407951,-0.50641 -0.526388,-0.7596 -0.111859,-0.2532 -0.164497,-0.5129 -0.164497,-0.77909 0,-0.4155 0.138176,-0.66221 0.414531,-0.75959 0.282935,-0.0974 0.644828,-0.013 1.098839,0.24021 0.50007,0.29216 0.861964,0.48043 1.092259,0.56484 0.230295,0.0909 0.467171,0.1623 0.717206,0.20126 z m -1.947642,-0.9349 c -0.342154,-0.19477 -0.605349,-0.2467 -0.783004,-0.1623 -0.171078,0.0844 -0.256617,0.28566 -0.256617,0.59729 0,0.32461 0.09212,0.62975 0.276355,0.91542 0.184237,0.28565 0.440852,0.52587 0.763266,0.70766 0.335573,0.18827 0.592188,0.24671 0.776425,0.1753 0.177656,-0.0779 0.263194,-0.27918 0.263194,-0.6038 0,-0.32461 -0.08554,-0.62975 -0.263194,-0.91541 -0.177656,-0.27917 -0.434273,-0.51938 -0.776425,-0.71416 z"
         id="path921" />
      <path
         inkscape:connector-curvature="0"
         style="fill:none;stroke:#000000;stroke-width:1;stroke-linecap:butt;stroke-linejoin:round;stroke-miterlimit:4;stroke-dasharray:none;stroke-opacity:1"
         d="m 7.9261584,265.92336 16.1535866,9.20611 z"
         id="path923" />
      <path
         inkscape:connector-curvature="0"
         style="fill:#2e5db7;fill-opacity:1;fill-rule:nonzero;stroke:none;stroke-width:0.26458332"
         d="m 16.473413,275.82414 c 0.02632,0.006 0.04605,0.006 0.06579,0.013 0.04605,0.006 0.09212,0.013 0.131597,0.0195 0.04605,0 0.08554,0 0.125018,0 0.03948,-0.006 0.07896,-0.006 0.118438,-0.0195 0.03948,-0.006 0.07238,-0.013 0.105277,-0.0325 0.03948,-0.013 0.07238,-0.0259 0.0987,-0.0454 0.0329,-0.0195 0.05922,-0.0389 0.08554,-0.0649 0.0329,-0.0195 0.05264,-0.0454 0.07896,-0.0779 0.01973,-0.0259 0.03948,-0.0584 0.05922,-0.0909 0.01973,-0.0325 0.03948,-0.0649 0.05264,-0.10388 0.01316,-0.0389 0.02632,-0.0779 0.0329,-0.11685 0.01316,-0.039 0.01974,-0.0844 0.01974,-0.12985 0.0065,-0.013 0.0065,-0.0325 0.0065,-0.0519 0,-0.0259 0,-0.052 0,-0.0844 0,-0.0325 0,-0.0649 0,-0.10388 -0.0065,-0.0454 -0.0065,-0.0974 -0.01974,-0.14932 -0.0065,-0.0519 -0.01973,-0.10388 -0.02632,-0.15581 -0.01316,-0.052 -0.0329,-0.10388 -0.04605,-0.15582 -0.01974,-0.0584 -0.03948,-0.11037 -0.05922,-0.1688 -0.02632,-0.0519 -0.04605,-0.10388 -0.07238,-0.16231 -0.02632,-0.0519 -0.05264,-0.10388 -0.08554,-0.1623 -0.02632,-0.052 -0.05922,-0.10388 -0.09212,-0.15582 -0.0329,-0.0584 -0.07238,-0.11037 -0.105279,-0.16231 -0.03948,-0.0454 -0.07238,-0.0974 -0.118437,-0.14932 -0.03948,-0.0454 -0.07896,-0.0974 -0.118438,-0.14283 -0.03948,-0.0454 -0.08554,-0.0909 -0.131597,-0.13634 -0.03948,-0.039 -0.08554,-0.0844 -0.131598,-0.12335 -0.04605,-0.039 -0.09212,-0.0779 -0.138178,-0.11687 -0.04605,-0.0325 -0.0987,-0.0649 -0.144756,-0.0974 -0.04605,-0.0325 -0.09212,-0.0649 -0.144758,-0.0909 -0.0329,-0.0195 -0.0658,-0.039 -0.0987,-0.052 -0.04605,-0.0259 -0.0987,-0.0454 -0.144758,-0.0649 -0.04605,-0.0195 -0.09212,-0.039 -0.138176,-0.0519 -0.04605,-0.013 -0.09212,-0.0259 -0.138177,-0.0325 -0.04606,-0.006 -0.08554,-0.013 -0.131598,-0.013 -0.03948,-0.006 -0.07896,-0.006 -0.125018,-0.006 -0.03948,0.006 -0.07896,0.013 -0.111857,0.0195 -0.03948,0.006 -0.07896,0.0195 -0.111858,0.0325 -0.0329,0.013 -0.0658,0.0259 -0.0987,0.0454 -0.02632,0.0195 -0.05922,0.039 -0.08554,0.0649 -0.02632,0.0259 -0.05264,0.052 -0.07238,0.0779 -0.02632,0.0259 -0.04605,0.0584 -0.0658,0.0909 -0.01974,0.0325 -0.0329,0.0714 -0.04606,0.10387 -0.01315,0.039 -0.02632,0.0779 -0.03948,0.11687 -0.0065,0.0454 -0.01316,0.0844 -0.01973,0.12985 -0.0065,0.0454 -0.0065,0.0909 -0.0065,0.13634 0,0.0259 0,0.052 0,0.0779 0.02632,0.006 0.04605,0.006 0.07238,0.013 0.04606,0.0195 0.09212,0.0325 0.138176,0.0519 0.04605,0.0195 0.0987,0.039 0.144758,0.0649 0.0329,0.013 0.0658,0.0325 0.0987,0.052 0.05264,0.0259 0.0987,0.0584 0.144756,0.0909 0.04605,0.0325 0.09212,0.0649 0.144758,0.10388 0.04605,0.0325 0.09212,0.0714 0.138178,0.11036 0.04605,0.039 0.09212,0.0844 0.131597,0.12336 0.04605,0.0454 0.08554,0.0909 0.131597,0.13634 0.03948,0.0454 0.07896,0.0974 0.118438,0.14283 0.03948,0.052 0.07896,0.10388 0.118438,0.15581 0.01316,0.013 0.01973,0.0325 0.0329,0.052 0.02632,0.0325 0.04605,0.0649 0.07238,0.10388 0.0329,0.052 0.06579,0.10387 0.09212,0.15581 0.0329,0.0584 0.05922,0.11036 0.08554,0.16231 0.02632,0.0584 0.04605,0.11037 0.07238,0.1688 0.01974,0.0519 0.03948,0.10388 0.05922,0.1623 0.01316,0.052 0.0329,0.10388 0.04605,0.15582 0.0065,0.0584 0.01974,0.11037 0.02632,0.15581 0.01316,0.052 0.01316,0.10388 0.01974,0.15582 0,0.006 0,0.013 0,0.0259 z"
         id="path925" />
      <path
         inkscape:connector-curvature="0"
         style="fill:#52ab83;fill-opacity:1;fill-rule:nonzero;stroke:none;stroke-width:0.26458332"
         d="m 15.039001,276.49935 c 0.0329,0.0195 0.07238,0.0325 0.105278,0.052 0.04605,0.0259 0.09212,0.0454 0.138176,0.0649 0.05264,0.0195 0.0987,0.0325 0.144758,0.0454 0.04606,0.013 0.09212,0.0259 0.131598,0.0325 0.04605,0.013 0.09212,0.0195 0.131598,0.0195 0.04605,0 0.08554,0 0.125016,0 0.03948,0 0.07896,-0.006 0.118438,-0.013 0.01974,-0.006 0.04605,-0.013 0.0658,-0.0259 -0.01973,-0.0325 -0.04605,-0.0649 -0.0658,-0.0974 -0.0329,-0.0584 -0.0658,-0.11036 -0.0987,-0.16231 -0.02632,-0.052 -0.05264,-0.11037 -0.07896,-0.1623 -0.02632,-0.0584 -0.05264,-0.11038 -0.07238,-0.16231 -0.02632,-0.0584 -0.04605,-0.11037 -0.05922,-0.16231 -0.01974,-0.0584 -0.0329,-0.11037 -0.04605,-0.16231 -0.01316,-0.0519 -0.02632,-0.10388 -0.0329,-0.15581 -0.0065,-0.0519 -0.01316,-0.10388 -0.01316,-0.14932 -0.0065,-0.039 -0.0065,-0.0715 -0.0065,-0.10388 0,-0.0325 0,-0.0584 0.0065,-0.0844 0,-0.0195 0,-0.039 0,-0.0519 0.0065,-0.0454 0.01316,-0.0909 0.01973,-0.12985 0.01316,-0.039 0.02632,-0.0779 0.03948,-0.11685 0.01316,-0.039 0.02632,-0.0714 0.04605,-0.10388 0.01974,-0.0325 0.03948,-0.0649 0.06579,-0.0909 0.01974,-0.0325 0.04605,-0.0584 0.07238,-0.0779 0.02632,-0.0259 0.05922,-0.0454 0.08554,-0.0649 0.0329,-0.0195 0.06579,-0.0325 0.0987,-0.0454 0.01316,-0.006 0.02632,-0.013 0.03948,-0.013 -0.01316,-0.0195 -0.01974,-0.039 -0.0329,-0.052 -0.03948,-0.0519 -0.07896,-0.10387 -0.118438,-0.15581 -0.03948,-0.0454 -0.07896,-0.0974 -0.118438,-0.14283 -0.03948,-0.0454 -0.08554,-0.0909 -0.131597,-0.13634 -0.03948,-0.039 -0.08554,-0.0844 -0.131597,-0.12336 -0.04605,-0.039 -0.09212,-0.0779 -0.138178,-0.11037 -0.05264,-0.039 -0.0987,-0.0715 -0.144757,-0.10387 -0.04605,-0.0325 -0.09212,-0.0649 -0.144757,-0.0909 -0.0329,-0.0195 -0.0658,-0.039 -0.0987,-0.0519 -0.04605,-0.0259 -0.0987,-0.0454 -0.144757,-0.0649 -0.04605,-0.0195 -0.09212,-0.0325 -0.138178,-0.0519 -0.02632,-0.006 -0.04605,-0.006 -0.06579,-0.013 -0.02632,-0.006 -0.04606,-0.013 -0.07238,-0.0195 -0.04605,-0.006 -0.08554,-0.013 -0.131597,-0.013 -0.03948,-0.006 -0.07896,-0.006 -0.125017,0 -0.03948,0 -0.07896,0.006 -0.111858,0.013 -0.03948,0.006 -0.07896,0.0195 -0.111859,0.0325 -0.0329,0.013 -0.06579,0.0325 -0.0987,0.0454 -0.02632,0.0195 -0.05922,0.0454 -0.08554,0.0649 -0.02632,0.0259 -0.05264,0.0519 -0.07238,0.0779 -0.02632,0.0325 -0.04605,0.0584 -0.06579,0.0909 -0.01973,0.0325 -0.0329,0.0715 -0.04605,0.11037 -0.01315,0.0325 -0.02632,0.0714 -0.03948,0.11686 -0.0065,0.0389 -0.01315,0.0779 -0.01973,0.12336 -0.0065,0.0454 -0.0065,0.0909 -0.0065,0.13633 0,0.039 0,0.0715 0.0065,0.10388 0,0.052 0.0065,0.0974 0.01316,0.14932 0.0065,0.0519 0.01973,0.10388 0.0329,0.15581 0.01316,0.052 0.02632,0.11038 0.04606,0.16232 0.01973,0.0519 0.03948,0.11036 0.05922,0.1623 0.01974,0.052 0.04605,0.11037 0.07238,0.16231 0.02632,0.0584 0.05264,0.11037 0.07896,0.16231 0.0329,0.0584 0.0658,0.11036 0.0987,0.16231 0.0329,0.0519 0.06579,0.10387 0.105278,0.15581 0.0329,0.052 0.07238,0.10387 0.111858,0.14932 0.03948,0.052 0.07896,0.0974 0.125018,0.14284 0.03948,0.0519 0.08554,0.0974 0.125017,0.13633 0.04605,0.0454 0.09212,0.0844 0.138177,0.12985 0.04605,0.039 0.09212,0.0779 0.138178,0.11037 0.04606,0.039 0.09212,0.0714 0.138177,0.10388 0.05264,0.0325 0.0987,0.0584 0.144758,0.0909 z"
         id="path927" />
      <path
         inkscape:connector-curvature="0"
         style="fill:#fbb2d1;fill-opacity:1;fill-rule:nonzero;stroke:none;stroke-width:0.26458332"
         d="m 16.960324,277.59005 c 0.0329,0.0195 0.0658,0.039 0.105277,0.0519 0.04605,0.0259 0.09212,0.0454 0.138177,0.0649 0.04605,0.0195 0.0987,0.039 0.144758,0.052 0.04605,0.013 0.08554,0.0259 0.131598,0.0325 0.04605,0.006 0.09212,0.013 0.131597,0.0195 0.04605,0 0.08554,0 0.125017,0 0.03948,-0.006 0.07896,-0.013 0.118437,-0.0195 0.03948,-0.006 0.07238,-0.0195 0.105279,-0.0325 0.0329,-0.013 0.06579,-0.0259 0.0987,-0.0454 0.0329,-0.0195 0.05922,-0.039 0.08554,-0.0649 0.02632,-0.0259 0.05264,-0.0519 0.07896,-0.0779 0.01973,-0.0259 0.03948,-0.0584 0.05922,-0.0909 0.01974,-0.0325 0.03948,-0.0715 0.05264,-0.10388 0.01316,-0.0389 0.02632,-0.0779 0.0329,-0.11686 0.0065,-0.0454 0.01973,-0.0844 0.01973,-0.12985 0.0065,-0.0454 0.0065,-0.0909 0.0065,-0.13633 0,-0.0325 0,-0.0715 0,-0.10388 -0.0065,-0.0454 -0.01316,-0.0974 -0.01973,-0.14933 -0.0065,-0.0519 -0.01974,-0.10387 -0.0329,-0.15581 -0.01316,-0.0519 -0.02632,-0.10388 -0.03948,-0.16231 -0.01974,-0.052 -0.03948,-0.10388 -0.05922,-0.1623 -0.02632,-0.052 -0.04605,-0.11038 -0.07238,-0.16231 -0.02632,-0.052 -0.05264,-0.11038 -0.08554,-0.16232 -0.02632,-0.0519 -0.05922,-0.11036 -0.09212,-0.1623 -0.0329,-0.052 -0.07238,-0.10388 -0.105278,-0.15581 -0.03948,-0.0519 -0.07896,-0.0974 -0.118438,-0.14933 -0.03948,-0.052 -0.07896,-0.0974 -0.118437,-0.14283 -0.04605,-0.0454 -0.08554,-0.0909 -0.131597,-0.13634 -0.01974,-0.0195 -0.04605,-0.0454 -0.0658,-0.0649 0,0.0195 0,0.039 -0.0065,0.052 0,0.0454 -0.0065,0.0909 -0.01973,0.12984 -0.0065,0.039 -0.01973,0.0779 -0.0329,0.11687 -0.01316,0.0389 -0.0329,0.0714 -0.05264,0.10387 -0.01974,0.0325 -0.03948,0.0649 -0.05922,0.0909 -0.02632,0.0325 -0.05264,0.0584 -0.07896,0.0779 -0.02632,0.0259 -0.05264,0.0454 -0.08554,0.0649 -0.02632,0.0195 -0.05922,0.0325 -0.0987,0.0454 -0.0329,0.0195 -0.06579,0.0259 -0.105278,0.0325 -0.03948,0.013 -0.07896,0.013 -0.118439,0.0195 -0.03948,0 -0.07896,0 -0.125017,0 -0.03948,-0.006 -0.08554,-0.013 -0.131597,-0.0195 -0.01974,-0.006 -0.03948,-0.006 -0.06579,-0.013 -0.01973,-0.006 -0.04605,-0.013 -0.0658,-0.0195 -0.04605,-0.013 -0.09212,-0.0259 -0.144757,-0.0454 -0.04606,-0.0195 -0.09212,-0.0454 -0.138177,-0.0649 -0.0329,-0.0195 -0.07238,-0.039 -0.105279,-0.0584 -0.04605,-0.0259 -0.09212,-0.0519 -0.138176,-0.0844 -0.05264,-0.0325 -0.0987,-0.0649 -0.144758,-0.10388 -0.04605,-0.039 -0.09212,-0.0714 -0.138176,-0.11687 -0.02632,-0.0195 -0.04605,-0.039 -0.0658,-0.0584 -0.0065,0.0259 -0.0065,0.052 -0.0065,0.0844 0,0.0325 0,0.0649 0.0065,0.10388 0,0.0454 0.0065,0.0974 0.01316,0.14933 0.0065,0.0519 0.01973,0.10387 0.0329,0.15581 0.01316,0.052 0.02632,0.10388 0.04605,0.16231 0.01316,0.052 0.0329,0.10388 0.05922,0.16232 0.01973,0.0519 0.04605,0.10387 0.07238,0.16229 0.02632,0.052 0.05264,0.11038 0.07896,0.16231 0.0329,0.052 0.0658,0.10388 0.0987,0.16232 0.01974,0.0325 0.04605,0.0649 0.06579,0.0974 0.01316,0.0195 0.02632,0.039 0.03948,0.0584 0.0329,0.052 0.07238,0.0974 0.111858,0.14931 0.03948,0.0454 0.07896,0.0974 0.125018,0.14283 0.03948,0.0454 0.08554,0.0909 0.125017,0.13634 0.04606,0.0454 0.09212,0.0844 0.138177,0.12336 0.04605,0.039 0.09212,0.0779 0.138178,0.11686 0.04605,0.0325 0.09212,0.0715 0.138177,0.0974 0.05264,0.0325 0.0987,0.0649 0.144756,0.0909 z"
         id="path929" />
      <path
         inkscape:connector-curvature="0"
         style="fill:#000000;fill-opacity:1;fill-rule:nonzero;stroke:none;stroke-width:0.26458332"
         d="m 15.762786,276.71359 c 0.01974,0 0.0329,0 0.05264,0 0.03948,0 0.07896,-0.006 0.118438,-0.013 0.01973,-0.006 0.04605,-0.013 0.0658,-0.0259 -0.01973,-0.0325 -0.04605,-0.0649 -0.0658,-0.0974 -0.0329,-0.0584 -0.0658,-0.11036 -0.0987,-0.16231 -0.02632,-0.0519 -0.05264,-0.11037 -0.07896,-0.1623 -0.02632,-0.0584 -0.05264,-0.11037 -0.07238,-0.16231 -0.02632,-0.0584 -0.04605,-0.11037 -0.05922,-0.16231 -0.01973,-0.0584 -0.0329,-0.11037 -0.04605,-0.1623 -0.01316,-0.052 -0.02632,-0.10388 -0.0329,-0.15582 -0.0065,-0.052 -0.01316,-0.10388 -0.01316,-0.14933 -0.0065,-0.039 -0.0065,-0.0715 -0.0065,-0.10387 0,-0.0259 0,-0.0454 0.0065,-0.0649 -0.01315,0.013 -0.01315,0.0325 -0.01973,0.0454 -0.01316,0.0259 -0.01974,0.0584 -0.02632,0.0844 -0.0065,0.039 -0.01315,0.0844 -0.01974,0.12984 -0.0065,0.0454 -0.0065,0.0909 -0.0065,0.13634 0,0.0454 0.0065,0.0974 0.0065,0.14932 0.0065,0.0454 0.01316,0.0974 0.02632,0.14932 0.0065,0.0519 0.01974,0.10388 0.03948,0.16231 0.01315,0.052 0.02632,0.10388 0.04605,0.15582 0.01973,0.0584 0.03948,0.11037 0.06579,0.1688 0.01316,0.0325 0.0329,0.0715 0.04606,0.10387 0.01316,0.0195 0.01973,0.039 0.02632,0.0584 0.01973,0.0259 0.0329,0.0519 0.04605,0.0779 z"
         id="path931" />
      <path
         inkscape:connector-curvature="0"
         style="fill:#000000;fill-opacity:1;fill-rule:nonzero;stroke:none;stroke-width:0.26458332"
         d="m 15.993083,274.56464 c -0.0065,-0.013 -0.01316,-0.0259 -0.01974,-0.039 -0.02632,-0.0584 -0.05264,-0.11037 -0.08554,-0.16231 -0.0329,-0.0584 -0.06579,-0.11036 -0.0987,-0.1623 -0.0329,-0.052 -0.07238,-0.10388 -0.111858,-0.15582 -0.0329,-0.0454 -0.07238,-0.0974 -0.118437,-0.14283 -0.03949,-0.052 -0.07896,-0.0974 -0.125019,-0.14283 -0.03948,-0.0454 -0.08554,-0.0909 -0.131597,-0.12985 -0.03948,-0.0454 -0.08554,-0.0844 -0.131597,-0.12335 -0.0329,-0.0259 -0.06579,-0.0519 -0.0987,-0.0779 -0.04605,-0.039 -0.0987,-0.0714 -0.144757,-0.10387 -0.04605,-0.0325 -0.09212,-0.0584 -0.144757,-0.0844 -0.01974,-0.013 -0.04606,-0.0259 -0.07238,-0.039 -0.01973,-0.013 -0.04606,-0.0259 -0.07238,-0.0325 -0.0065,-0.006 -0.01316,-0.013 -0.02632,-0.013 -0.0065,0.0325 -0.01316,0.0715 -0.01973,0.11036 -0.0065,0.0454 -0.0065,0.0909 -0.0065,0.13634 0,0.0259 0,0.052 0,0.0779 0.02632,0.006 0.04605,0.006 0.07238,0.013 0.04606,0.0195 0.09212,0.0325 0.138179,0.052 0.04605,0.0195 0.0987,0.039 0.144757,0.0649 0.0329,0.013 0.06579,0.0325 0.0987,0.0519 0.05264,0.0259 0.0987,0.0584 0.144756,0.0909 0.04605,0.0325 0.09212,0.0649 0.144758,0.10387 0.04606,0.0325 0.09212,0.0714 0.138177,0.11037 0.04605,0.039 0.09212,0.0844 0.131597,0.12335 0.04605,0.0454 0.08554,0.0909 0.131597,0.13634 0.03949,0.0454 0.07896,0.0974 0.118439,0.14283 0.03948,0.0519 0.07896,0.10388 0.118438,0.15581 0.0065,0.013 0.01974,0.0259 0.02632,0.039 z"
         id="path933" />
      <path
         inkscape:connector-curvature="0"
         style="fill:#000000;fill-opacity:1;fill-rule:nonzero;stroke:none;stroke-width:0.26458332"
         d="m 16.479992,275.82414 c 0.01973,0.013 0.03948,0.0195 0.0658,0.0325 0.04606,0.0195 0.09212,0.039 0.138178,0.0584 0.04605,0.0195 0.09212,0.0325 0.138178,0.0454 0.04605,0.006 0.09212,0.0195 0.138177,0.0259 0.03948,0.006 0.08554,0.006 0.125017,0.006 0.04606,0 0.08554,0 0.125018,-0.006 0.03948,0 0.07238,-0.006 0.111857,-0.0195 0.03948,-0.013 0.07238,-0.0259 0.105279,-0.039 0.0329,-0.013 0.0658,-0.0325 0.09212,-0.0519 0.0329,-0.0195 0.05922,-0.0454 0.08554,-0.0715 0.01974,-0.0259 0.04605,-0.0519 0.0658,-0.0844 0.02632,-0.0259 0.03948,-0.0584 0.05922,-0.0974 0.0065,-0.013 0.01316,-0.0259 0.01973,-0.039 0.0065,-0.0195 0.01315,-0.0454 0.02632,-0.0649 0,-0.013 0.0065,-0.0259 0.0065,-0.039 0,-0.006 -0.0065,-0.006 -0.01316,-0.013 -0.03948,-0.0519 -0.07896,-0.0974 -0.118438,-0.14282 -0.04605,-0.0454 -0.08554,-0.0909 -0.131598,-0.13634 -0.01973,-0.0195 -0.04605,-0.0454 -0.0658,-0.0649 0,0.0195 0,0.0389 -0.0065,0.052 0,0.0454 -0.0065,0.0909 -0.01973,0.12984 -0.0065,0.039 -0.01974,0.0779 -0.0329,0.11687 -0.01316,0.039 -0.0329,0.0714 -0.05264,0.10387 -0.01973,0.0325 -0.03948,0.0649 -0.05922,0.0909 -0.02632,0.0325 -0.05264,0.0584 -0.07896,0.0779 -0.02632,0.0259 -0.05264,0.0454 -0.08554,0.0649 -0.02632,0.0195 -0.05922,0.0325 -0.0987,0.0454 -0.0329,0.0195 -0.0658,0.0259 -0.105279,0.0325 -0.03948,0.013 -0.07896,0.013 -0.118438,0.0195 -0.03948,0 -0.07896,0 -0.125018,0 -0.03948,-0.006 -0.08554,-0.013 -0.131597,-0.0195 -0.01973,-0.006 -0.03948,-0.006 -0.05922,-0.013 z"
         id="path935" />
      <path
         inkscape:connector-curvature="0"
         style="fill:#000000;fill-opacity:1;fill-rule:nonzero;stroke:none;stroke-width:0.26458332"
         d="m 8.439388,250.76381 c 0,0.31813 -0.2631952,0.4285 -0.5856086,0.24022 -0.322414,-0.18179 -0.5856086,-0.59081 -0.5856086,-0.90892 0,-0.31812 0.2631946,-0.4285 0.5856086,-0.24671 0.3224134,0.18827 0.5856086,0.5908 0.5856086,0.91541 z"
         id="path937" />
      <path
         inkscape:connector-curvature="0"
         style="fill:#000000;fill-opacity:1;fill-rule:nonzero;stroke:none;stroke-width:0.26458332"
         d="m 11.137136,252.19861 c 0,0.31813 -0.263195,0.4285 -0.585608,0.24671 -0.328994,-0.18827 -0.5921892,-0.59729 -0.5921892,-0.91541 0,-0.31813 0.2631952,-0.4285 0.5921892,-0.24671 0.322413,0.18828 0.585608,0.59729 0.585608,0.91541 z"
         id="path939" />
      <path
         inkscape:connector-curvature="0"
         style="fill:#000000;fill-opacity:1;fill-rule:nonzero;stroke:none;stroke-width:0.26458332"
         d="m 13.828304,253.89311 c 0,0.31812 -0.263195,0.42849 -0.585609,0.24021 -0.322413,-0.18178 -0.585608,-0.59079 -0.585608,-0.90892 0,-0.31812 0.263195,-0.4285 0.585608,-0.24671 0.322414,0.18828 0.585609,0.5973 0.585609,0.91542 z"
         id="path941" />
      <path
         inkscape:connector-curvature="0"
         style="fill:#000000;fill-opacity:1;fill-rule:nonzero;stroke:none;stroke-width:0.26458332"
         d="m 15.999662,255.10717 2.579311,1.46727 v 0.2467 l -2.579311,-1.46726 z"
         id="path943" />
      <path
         inkscape:connector-curvature="0"
         style="fill:#333333;fill-opacity:1;fill-rule:nonzero;stroke:#000000;stroke-width:0.25399813px;stroke-linecap:butt;stroke-linejoin:miter;stroke-miterlimit:4;stroke-dasharray:none;stroke-opacity:1"
         d="m 34.844415,242.68738 13.462419,7.66742 13.462419,7.66742 v 30.66969 L 34.844415,273.35707 Z"
         id="path945" />
      <path
         inkscape:connector-curvature="0"
         style="fill:#ececec;fill-opacity:1;fill-rule:nonzero;stroke:#000000;stroke-width:0.25399813px;stroke-linecap:butt;stroke-linejoin:miter;stroke-miterlimit:4;stroke-dasharray:none;stroke-opacity:1"
         d="m 34.844415,242.68738 2.691167,-1.53869 26.92484,15.34134 -2.691169,1.53219 z"
         id="path947" />
      <path
         inkscape:connector-curvature="0"
         style="fill:#c4c4c4;fill-opacity:1;fill-rule:nonzero;stroke:#000000;stroke-width:0.25399813px;stroke-linecap:butt;stroke-linejoin:miter;stroke-miterlimit:4;stroke-dasharray:none;stroke-opacity:1"
         d="m 61.769253,288.69191 2.691169,-1.53219 v -30.66969 l -2.691169,1.53219 z"
         id="path949" />
      <path
         inkscape:connector-curvature="0"
         style="fill:#e6e6e6;fill-opacity:1;fill-rule:nonzero;stroke:none;stroke-width:0.26458332"
         d="m 37.535582,247.28394 21.542504,12.27047 v 24.54094 L 37.535582,271.82487 Z"
         id="path951" />
      <path
         inkscape:connector-curvature="0"
         style="fill:#72d8ff;fill-opacity:1;fill-rule:nonzero;stroke:none;stroke-width:0.26458332"
         d="m 37.535582,247.28394 21.542504,12.27047 v 3.07086 L 37.535582,250.3548 Z"
         id="path953" />
      <path
         inkscape:connector-curvature="0"
         style="fill:#000000;fill-opacity:1;fill-rule:nonzero;stroke:none;stroke-width:0.26458332"
         d="m 40.74656,250.76381 c 0,0.31813 -0.263194,0.4285 -0.585608,0.24022 -0.322414,-0.18179 -0.585609,-0.59081 -0.585609,-0.90892 0,-0.31812 0.263195,-0.4285 0.585609,-0.24671 0.322414,0.18827 0.585608,0.5908 0.585608,0.91541 z"
         id="path955" />
      <path
         inkscape:connector-curvature="0"
         style="fill:#000000;fill-opacity:1;fill-rule:nonzero;stroke:none;stroke-width:0.26458332"
         d="m 43.437728,252.19861 c 0,0.31813 -0.256614,0.4285 -0.58561,0.24671 -0.322413,-0.18827 -0.585608,-0.59729 -0.585608,-0.91541 0,-0.31813 0.263195,-0.4285 0.585608,-0.24671 0.328996,0.18828 0.58561,0.59729 0.58561,0.91541 z"
         id="path957" />
      <path
         inkscape:connector-curvature="0"
         style="fill:#000000;fill-opacity:1;fill-rule:nonzero;stroke:none;stroke-width:0.26458332"
         d="m 46.135476,253.89311 c 0,0.31812 -0.263196,0.42849 -0.58561,0.24021 -0.328991,-0.18178 -0.585608,-0.59079 -0.585608,-0.90892 0,-0.31812 0.256617,-0.4285 0.585608,-0.24671 0.322414,0.18828 0.58561,0.5973 0.58561,0.91542 z"
         id="path959" />
      <path
         inkscape:connector-curvature="0"
         style="fill:#000000;fill-opacity:1;fill-rule:nonzero;stroke:none;stroke-width:0.26458332"
         d="m 48.306834,255.10717 2.57931,1.46727 v 0.2467 l -2.57931,-1.46726 z"
         id="path961" />
      <path
         inkscape:connector-curvature="0"
         style="fill:none;stroke:#004fac;stroke-width:1;stroke-linecap:round;stroke-linejoin:round;stroke-miterlimit:4;stroke-dasharray:none;stroke-opacity:1"
         d="m 40.23333,256.57444 16.186488,9.2775 v 7.12857 L 40.23333,263.70948 Z"
         id="path963" />
      <path
         inkscape:connector-curvature="0"
         style="fill:#004fac;fill-opacity:1;fill-rule:nonzero;stroke:#004fac;stroke-width:0.5;stroke-linecap:butt;stroke-linejoin:round;stroke-miterlimit:4;stroke-dasharray:none;stroke-opacity:1"
         d="m 40.23333,265.1378 7.468155,4.27843 z"
         id="path965" />
      <path
         inkscape:connector-curvature="0"
         style="fill:#004fac;fill-opacity:1;fill-rule:nonzero;stroke:#004fac;stroke-width:0.5;stroke-linecap:butt;stroke-linejoin:round;stroke-miterlimit:4;stroke-dasharray:none;stroke-opacity:1"
         d="m 40.23333,266.11164 7.468155,4.27844 z"
         id="path967" />
      <path
         inkscape:connector-curvature="0"
         style="fill:#004fac;fill-opacity:1;fill-rule:nonzero;stroke:#004fac;stroke-width:0.5;stroke-linecap:butt;stroke-linejoin:round;stroke-miterlimit:4;stroke-dasharray:none;stroke-opacity:1"
         d="m 40.23333,267.01408 7.468155,4.28492 z"
         id="path969" />
      <path
         inkscape:connector-curvature="0"
         style="fill:#57a4ff;fill-opacity:1;fill-rule:nonzero;stroke:#004fac;stroke-width:0.5;stroke-linecap:round;stroke-linejoin:round;stroke-miterlimit:4;stroke-dasharray:none;stroke-opacity:1"
         d="m 40.23333,267.95546 2.487191,1.42831 v 1.266 l -2.487191,-1.42831 z"
         id="path971" />
      <path
         inkscape:connector-curvature="0"
         style="fill:#004fac;fill-opacity:1;fill-rule:nonzero;stroke:#004fac;stroke-width:0.5;stroke-linecap:butt;stroke-linejoin:round;stroke-miterlimit:4;stroke-dasharray:none;stroke-opacity:1"
         d="m 43.964117,270.24075 3.737368,2.13597 z"
         id="path973" />
      <path
         inkscape:connector-curvature="0"
         style="fill:#004fac;fill-opacity:1;fill-rule:nonzero;stroke:#004fac;stroke-width:0.5;stroke-linecap:butt;stroke-linejoin:round;stroke-miterlimit:4;stroke-dasharray:none;stroke-opacity:1"
         d="m 43.937799,271.20161 1.362035,0.78558 z"
         id="path975" />
      <path
         inkscape:connector-curvature="0"
         style="fill:#004fac;fill-opacity:1;fill-rule:nonzero;stroke:#004fac;stroke-width:0.5;stroke-linecap:butt;stroke-linejoin:round;stroke-miterlimit:4;stroke-dasharray:none;stroke-opacity:1"
         d="m 48.951662,270.13038 7.468156,4.27844 z"
         id="path977" />
      <path
         inkscape:connector-curvature="0"
         style="fill:#004fac;fill-opacity:1;fill-rule:nonzero;stroke:#004fac;stroke-width:0.5;stroke-linecap:butt;stroke-linejoin:round;stroke-miterlimit:4;stroke-dasharray:none;stroke-opacity:1"
         d="m 48.951662,271.10423 7.468156,4.27843 z"
         id="path979" />
      <path
         inkscape:connector-curvature="0"
         style="fill:#004fac;fill-opacity:1;fill-rule:nonzero;stroke:#004fac;stroke-width:0.5;stroke-linecap:butt;stroke-linejoin:round;stroke-miterlimit:4;stroke-dasharray:none;stroke-opacity:1"
         d="m 48.951662,272.00667 7.468156,4.28492 z"
         id="path981" />
      <path
         inkscape:connector-curvature="0"
         style="fill:#004fac;fill-opacity:1;fill-rule:nonzero;stroke:#004fac;stroke-width:0.5;stroke-linecap:butt;stroke-linejoin:round;stroke-miterlimit:4;stroke-dasharray:none;stroke-opacity:1"
         d="m 48.951662,272.98051 7.468156,4.28493 z"
         id="path983" />
      <path
         inkscape:connector-curvature="0"
         style="fill:#004fac;fill-opacity:1;fill-rule:nonzero;stroke:#004fac;stroke-width:0.5;stroke-linecap:butt;stroke-linejoin:round;stroke-miterlimit:4;stroke-dasharray:none;stroke-opacity:1"
         d="m 48.951662,274.04525 2.329274,1.33741 z"
         id="path985" />
      <path
         inkscape:connector-curvature="0"
         style="fill:#004fac;fill-opacity:1;fill-rule:nonzero;stroke:#004fac;stroke-width:0.5;stroke-linecap:butt;stroke-linejoin:round;stroke-miterlimit:4;stroke-dasharray:none;stroke-opacity:1"
         d="m 52.109999,275.85661 0.572451,0.3246 z"
         id="path987" />
      <path
         inkscape:connector-curvature="0"
         style="fill:#57a4ff;fill-opacity:1;fill-rule:nonzero;stroke:#004fac;stroke-width:1;stroke-linecap:round;stroke-linejoin:round;stroke-miterlimit:4;stroke-dasharray:none;stroke-opacity:1"
         d="m 51.366476,264.22887 3.335995,7.64795 -6.678572,-3.82398 z"
         id="path989" />
      <path
         inkscape:connector-curvature="0"
         style="fill:#57a4ff;fill-opacity:1;fill-rule:nonzero;stroke:#004fac;stroke-width:1;stroke-linecap:round;stroke-linejoin:round;stroke-miterlimit:4;stroke-dasharray:none;stroke-opacity:1"
         d="m 47.45803,264.46259 1.908164,4.34336 -3.809747,-2.18141 z"
         id="path991" />
      <path
         inkscape:connector-curvature="0"
         style="fill:#57a4ff;fill-opacity:1;fill-rule:nonzero;stroke:#004fac;stroke-width:0.5;stroke-linecap:round;stroke-linejoin:round;stroke-miterlimit:4;stroke-dasharray:none;stroke-opacity:1"
         d="m 45.615667,262.66422 c 0,0.844 -0.690886,1.13616 -1.539692,0.64924 -0.848801,-0.48692 -1.539689,-1.56465 -1.539689,-2.40866 0,-0.84399 0.690888,-1.12966 1.539689,-0.64273 0.848806,0.48693 1.539692,1.56465 1.539692,2.40215 z"
         id="path993" />
      <path
         inkscape:connector-curvature="0"
         style="fill:none;stroke:#004fac;stroke-width:0.5;stroke-linecap:butt;stroke-linejoin:round;stroke-miterlimit:4;stroke-dasharray:none;stroke-opacity:1"
         d="m 44.095714,262.04745 v 3.74607 l -0.03948,-0.0195 z"
         id="path995" />
      <path
         inkscape:connector-curvature="0"
         style="fill:none;stroke:#004fac;stroke-width:0.5;stroke-linecap:butt;stroke-linejoin:round;stroke-miterlimit:4;stroke-dasharray:none;stroke-opacity:1"
         d="m 43.937799,264.85863 -1.131737,-1.99314 0.01315,-0.006 z"
         id="path997" />
      <path
         inkscape:connector-curvature="0"
         style="fill:#f2f2f2;fill-opacity:1;fill-rule:nonzero;stroke:#000000;stroke-width:1;stroke-linecap:butt;stroke-linejoin:round;stroke-miterlimit:4;stroke-dasharray:none;stroke-opacity:1"
         d="m 67.151585,241.14869 21.4767,11.06291 5.382348,9.19961 v 27.60531 L 67.151585,273.35707 Z"
         id="path999" />
      <path
         inkscape:connector-curvature="0"
         style="fill:#000000;fill-opacity:1;fill-rule:nonzero;stroke:none;stroke-width:0.26458332"
         d="m 70.303345,271.92226 c -0.111856,-0.17529 -0.177651,-0.35707 -0.177651,-0.49341 0,-0.14283 0.0658,-0.24671 0.177651,-0.29216 l 0.171082,-0.0779 3.678148,2.09702 3.671567,2.09052 0.177656,0.27268 c 0.111857,0.17529 0.177658,0.35707 0.177658,0.49341 0,0.14284 -0.0658,0.24671 -0.177658,0.29217 l -0.177656,0.0779 -3.671567,-2.09702 -3.678148,-2.09052 z"
         id="path1001" />
      <path
         inkscape:connector-curvature="0"
         style="fill:#000000;fill-opacity:1;fill-rule:nonzero;stroke:none;stroke-width:0.26458332"
         d="m 79.508591,277.16156 c -0.111857,-0.1688 -0.177658,-0.35058 -0.177658,-0.49342 0,-0.13633 0.0658,-0.24671 0.177658,-0.29215 l 0.171075,-0.0715 3.099122,1.76591 3.099121,1.76591 0.177657,0.27268 c 0.111857,0.17529 0.177657,0.35707 0.177657,0.49341 0,0.13634 -0.0658,0.24671 -0.177657,0.29216 l -0.177657,0.0779 -3.099121,-1.76591 -3.099122,-1.76591 z"
         id="path1003" />
      <path
         inkscape:connector-curvature="0"
         style="fill:#000000;fill-opacity:1;fill-rule:nonzero;stroke:none;stroke-width:0.26458332"
         d="m 87.562354,281.75163 c -0.111857,-0.1753 -0.177652,-0.35709 -0.177652,-0.49343 0,-0.13633 0.06578,-0.2467 0.177652,-0.29214 0.171076,-0.0715 0.184241,-0.0649 1.546274,0.70765 1.362033,0.77908 1.375198,0.78557 1.552858,1.05825 0.105262,0.17529 0.171057,0.35708 0.171057,0.49341 0,0.13635 -0.06578,0.24672 -0.171057,0.29216 -0.17766,0.0714 -0.190825,0.0649 -1.552858,-0.70766 -1.362033,-0.77907 -1.375198,-0.78557 -1.546274,-1.05824 z"
         id="path1005" />
      <path
         inkscape:connector-curvature="0"
         style="fill:#000000;fill-opacity:1;fill-rule:nonzero;stroke:none;stroke-width:0.26458332"
         d="m 70.303345,268.51379 c -0.111856,-0.17528 -0.177651,-0.35707 -0.177651,-0.49341 0,-0.13634 0.0658,-0.2467 0.177651,-0.29214 l 0.171082,-0.0715 2.52667,1.4348 2.520088,1.4348 0.177657,0.27918 c 0.111856,0.1688 0.177656,0.35707 0.177656,0.49341 0,0.13634 -0.0658,0.24671 -0.177656,0.29216 l -0.177657,0.0714 -2.520088,-1.4348 -2.52667,-1.44129 z"
         id="path1007" />
      <path
         inkscape:connector-curvature="0"
         style="fill:#000000;fill-opacity:1;fill-rule:nonzero;stroke:none;stroke-width:0.26458332"
         d="m 77.205633,272.44814 c -0.111856,-0.17529 -0.177656,-0.35708 -0.177656,-0.49342 0,-0.14283 0.0658,-0.2467 0.177656,-0.29214 l 0.177658,-0.0779 3.099121,1.7659 3.099115,1.76591 0.171082,0.27268 c 0.111856,0.17529 0.177651,0.35708 0.177651,0.49992 0,0.13633 -0.0658,0.2467 -0.177651,0.29214 l -0.171082,0.0714 -3.099115,-1.76591 -3.099121,-1.76591 z"
         id="path1009" />
      <path
         inkscape:connector-curvature="0"
         style="fill:#000000;fill-opacity:1;fill-rule:nonzero;stroke:none;stroke-width:0.26458332"
         d="m 85.259395,277.0382 c -0.11185,-0.17529 -0.177651,-0.35707 -0.177651,-0.49341 0,-0.14283 0.0658,-0.2467 0.177651,-0.29865 l 0.177657,-0.0714 2.520101,1.43479 2.526673,1.4413 0.17766,0.27267 c 0.105262,0.1753 0.171057,0.35708 0.171057,0.49342 0,0.14283 -0.06578,0.24671 -0.171057,0.29216 l -0.17766,0.0779 -2.526673,-1.4413 -2.520101,-1.4348 z"
         id="path1011" />
      <path
         inkscape:connector-curvature="0"
         style="fill:#000000;fill-opacity:1;fill-rule:nonzero;stroke:none;stroke-width:0.26458332"
         d="m 70.303345,265.11183 c -0.111856,-0.17529 -0.177651,-0.35708 -0.177651,-0.49992 0,-0.13633 0.0658,-0.2467 0.177651,-0.29214 l 0.171082,-0.0715 7.125995,4.0577 7.126009,4.06418 0.177656,0.27268 c 0.111857,0.1688 0.177657,0.35708 0.177657,0.49342 0,0.13634 -0.0658,0.24671 -0.177657,0.29216 l -0.177656,0.0715 -7.126009,-4.0577 -7.125995,-4.05769 z"
         id="path1013" />
      <path
         inkscape:connector-curvature="0"
         style="fill:#000000;fill-opacity:1;fill-rule:nonzero;stroke:none;stroke-width:0.26458332"
         d="m 86.410873,274.28547 c -0.111857,-0.1753 -0.17765,-0.35709 -0.17765,-0.49343 0,-0.13633 0.0658,-0.2467 0.17765,-0.29214 l 0.177656,-0.0779 1.94765,1.11019 1.947647,1.11018 0.17766,0.27917 c 0.105262,0.1688 0.171057,0.35059 0.171057,0.49342 0,0.13634 -0.06578,0.24671 -0.171057,0.29215 l -0.17766,0.0715 -1.947647,-1.11019 -1.94765,-1.11018 z"
         id="path1015" />
      <path
         inkscape:connector-curvature="0"
         style="fill:#000000;fill-opacity:1;fill-rule:nonzero;stroke:none;stroke-width:0.26458332"
         d="m 70.303345,261.70336 c -0.111856,-0.17529 -0.177651,-0.35707 -0.177651,-0.49341 0,-0.13635 0.0658,-0.24671 0.177651,-0.29216 l 0.171082,-0.0779 3.678148,2.09702 3.671567,2.09053 0.177656,0.27267 c 0.111857,0.17529 0.177658,0.35707 0.177658,0.4999 0,0.13634 -0.0658,0.24672 -0.177658,0.29217 l -0.177656,0.0714 -3.671567,-2.09053 -3.678148,-2.09701 z"
         id="path1017" />
      <path
         inkscape:connector-curvature="0"
         style="fill:#000000;fill-opacity:1;fill-rule:nonzero;stroke:none;stroke-width:0.26458332"
         d="m 79.508591,266.94915 c -0.111857,-0.17529 -0.177658,-0.35708 -0.177658,-0.4999 0,-0.13634 0.0658,-0.24022 0.177658,-0.29217 l 0.171075,-0.0714 5.402078,3.07735 5.402082,3.07736 0.17766,0.27268 c 0.230283,0.36357 0.230283,0.68819 0,0.78557 l -0.17766,0.0779 -5.402082,-3.07736 -5.402078,-3.07735 z"
         id="path1019" />
      <path
         inkscape:connector-curvature="0"
         style="fill:#000000;fill-opacity:1;fill-rule:nonzero;stroke:none;stroke-width:0.26458332"
         d="m 70.303345,258.2949 c -0.111856,-0.1688 -0.177651,-0.35708 -0.177651,-0.49342 0,-0.13634 0.0658,-0.2467 0.177651,-0.29215 l 0.171082,-0.0714 5.981098,3.40198 5.974531,3.40197 0.171075,0.27917 c 0.111857,0.1688 0.177657,0.35058 0.177657,0.49341 0,0.13634 -0.0658,0.24672 -0.177657,0.29216 l -0.171075,0.0714 -5.974531,-3.40198 -5.981098,-3.40197 z"
         id="path1021" />
      <path
         inkscape:connector-curvature="0"
         style="fill:#000000;fill-opacity:1;fill-rule:nonzero;stroke:none;stroke-width:0.26458332"
         d="m 84.107923,266.16358 c -0.111863,-0.17529 -0.177663,-0.35708 -0.177663,-0.49342 0,-0.14283 0.0658,-0.2467 0.177663,-0.29214 l 0.177656,-0.0779 3.099123,1.76591 3.099124,1.76591 0.17766,0.27267 c 0.105262,0.1753 0.171057,0.35708 0.171057,0.49342 0,0.14283 -0.06578,0.24671 -0.171057,0.29865 l -0.17766,0.0715 -3.099124,-1.76591 -3.099123,-1.76591 z"
         id="path1023" />
      <path
         inkscape:connector-curvature="0"
         style="fill:#000000;fill-opacity:1;fill-rule:nonzero;stroke:none;stroke-width:0.26458332"
         d="m 70.303345,254.89293 c -0.111856,-0.1753 -0.177651,-0.35708 -0.177651,-0.49342 0,-0.14283 0.0658,-0.2467 0.177651,-0.29865 l 0.171082,-0.0714 1.947643,1.11018 1.954218,1.11018 0.171075,0.27268 c 0.111857,0.17529 0.177658,0.35708 0.177658,0.49341 0,0.14284 -0.0658,0.24671 -0.177658,0.29865 l -0.171075,0.0714 -1.954218,-1.11018 -1.947643,-1.11019 z"
         id="path1025" />
      <path
         inkscape:connector-curvature="0"
         style="fill:#000000;fill-opacity:1;fill-rule:nonzero;stroke:none;stroke-width:0.26458332"
         d="m 76.054156,258.16505 c -0.111857,-0.1688 -0.177658,-0.35058 -0.177658,-0.49341 0,-0.13634 0.0658,-0.24672 0.177658,-0.29216 l 0.177656,-0.0715 7.126002,4.05771 7.126012,4.05769 0.17766,0.27917 c 0.105262,0.1688 0.171057,0.35708 0.171057,0.49342 0,0.13633 -0.06578,0.24671 -0.171057,0.29215 l -0.17766,0.0714 -7.126012,-4.0577 -7.126002,-4.05769 z"
         id="path1027" />
      <path
         inkscape:connector-curvature="0"
         style="fill:#000000;fill-opacity:1;fill-rule:nonzero;stroke:none;stroke-width:0.26458332"
         d="m 70.303345,251.48446 c -0.111856,-0.1753 -0.177651,-0.35708 -0.177651,-0.49342 0,-0.13634 0.0658,-0.2467 0.177651,-0.29215 l 0.171082,-0.0779 3.678148,2.09701 3.671567,2.09053 0.177656,0.27917 c 0.111857,0.1688 0.177658,0.35059 0.177658,0.49342 0,0.13634 -0.0658,0.24671 -0.177658,0.29215 l -0.177656,0.0714 -3.671567,-2.09052 -3.678148,-2.09702 z"
         id="path1029" />
      <path
         inkscape:connector-curvature="0"
         style="fill:#f9f9f9;fill-opacity:1;fill-rule:nonzero;stroke:#000000;stroke-width:1;stroke-linecap:butt;stroke-linejoin:round;stroke-miterlimit:4;stroke-dasharray:none;stroke-opacity:1"
         d="m 88.628285,252.2116 c 0,0 -2.592457,2.22686 -2.151612,4.97311 0.04608,0.31163 2.250314,3.92136 2.408232,4.18755 1.552859,2.66184 5.125728,0.039 5.125728,0.039 v 0 z"
         id="path1031" />
      <path
         inkscape:connector-curvature="0"
         style="opacity:0.06499999;fill:#000000;fill-opacity:1;fill-rule:nonzero;stroke:none;stroke-width:0.26458332"
         d="m 21.494491,250.52255 13.455837,-7.66742 26.924838,15.33484 -29.616005,29.1375 v -30.66969 z"
         id="path1033" />
      <path
         inkscape:connector-curvature="0"
         style="opacity:0.06499999;fill:#000000;fill-opacity:1;fill-rule:nonzero;stroke:none;stroke-width:0.26458332"
         d="m 51.109859,248.78365 16.041726,-7.63496 21.535926,10.73829 -24.227089,35.27274 v -30.66969 z"
         id="path1035" />
    </g>
  </g>
</svg>
