<?xml version="1.0" encoding="UTF-8" standalone="no"?>
<!-- Created with Inkscape (http://www.inkscape.org/) -->

<svg
   xmlns:dc="http://purl.org/dc/elements/1.1/"
   xmlns:cc="http://creativecommons.org/ns#"
   xmlns:rdf="http://www.w3.org/1999/02/22-rdf-syntax-ns#"
   xmlns:svg="http://www.w3.org/2000/svg"
   xmlns="http://www.w3.org/2000/svg"
   xmlns:sodipodi="http://sodipodi.sourceforge.net/DTD/sodipodi-0.dtd"
   xmlns:inkscape="http://www.inkscape.org/namespaces/inkscape"
   width="379.99997"
   height="280"
   viewBox="0 0 100.54166 74.083335"
   version="1.1"
   id="svg8"
   inkscape:version="0.92.5 (2060ec1f9f, 2020-04-08)"
   sodipodi:docname="inverted.svg">
  <defs
     id="defs2" />
  <sodipodi:namedview
     id="base"
     pagecolor="#ffffff"
     bordercolor="#666666"
     borderopacity="1.0"
     inkscape:pageopacity="0.0"
     inkscape:pageshadow="2"
     inkscape:zoom="0.69974097"
     inkscape:cx="427.19106"
     inkscape:cy="149.18906"
     inkscape:document-units="mm"
     inkscape:current-layer="layer1"
     showgrid="false"
     fit-margin-top="0"
     fit-margin-left="0"
     fit-margin-right="0"
     fit-margin-bottom="0"
     units="px"
     inkscape:window-width="1600"
     inkscape:window-height="837"
     inkscape:window-x="-8"
     inkscape:window-y="-8"
     inkscape:window-maximized="1" />
  <metadata
     id="metadata5">
    <rdf:RDF>
      <cc:Work
         rdf:about="">
        <dc:format>image/svg+xml</dc:format>
        <dc:type
           rdf:resource="http://purl.org/dc/dcmitype/StillImage" />
        <dc:title></dc:title>
      </cc:Work>
    </rdf:RDF>
  </metadata>
  <g
     inkscape:label="Layer 1"
     inkscape:groupmode="layer"
     id="layer1"
     transform="translate(0,-222.91665)">
    <flowRoot
       xml:space="preserve"
       id="flowRoot882"
       style="font-style:normal;font-variant:normal;font-weight:normal;font-stretch:normal;font-size:192px;line-height:1.25;font-family:'goodvibes regular';-inkscape-font-specification:'goodvibes regular, ';letter-spacing:0px;word-spacing:0px"><flowRegion
         id="flowRegion884"><rect
           id="rect886"
           width="643.08972"
           height="381.68417"
           x="367.25073"
           y="-204.0309" /></flowRegion><flowPara
         id="flowPara888" /></flowRoot>    <g
       id="g1041"
       transform="translate(-0.37176484,56.446787)">
      <rect
         y="166.46986"
         x="0.37176484"
         height="74.083336"
         width="100.54166"
         id="rect8370-1"
         style="opacity:1;fill:#212840;fill-opacity:1;stroke:none;stroke-width:0.29999998;stroke-linecap:round;stroke-linejoin:round;stroke-miterlimit:4;stroke-dasharray:none;stroke-dashoffset:0;stroke-opacity:1;paint-order:normal" />
      <g
         style="stroke-width:5.755301"
         id="g1809"
         transform="matrix(0.17387842,0,0,0.17362742,-75.864068,185.75259)">
        <path
           style="fill:#52ab83;fill-opacity:1;stroke:none;stroke-width:1.52275646px;stroke-linecap:butt;stroke-linejoin:miter;stroke-opacity:1"
           d="M 692.82036,-22.999991 927.82242,112.67847 692.82036,248.35696 457.8184,112.67847 Z"
           id="path1681"
           inkscape:connector-curvature="0" />
        <path
           style="opacity:1;fill:#552200;fill-opacity:1;stroke:none;stroke-width:1.72659039;stroke-linecap:round;stroke-linejoin:round;stroke-miterlimit:4;stroke-dasharray:none;stroke-dashoffset:0;stroke-opacity:1;paint-order:normal"
           d="m 837.72133,118.22976 c 0,8.39219 16.44461,16.63093 12.57831,24.28306 -2.20411,4.36235 -16.36707,16.38226 -19.6817,20.41806 -3.85023,4.68794 -15.55766,1.197 -20.75168,5.35322 -26.10979,20.8929 -68.14819,34.44899 -115.56011,34.44899 -21.86773,0 -41.66104,-15.23027 -60.60903,-18.62455 -30.93572,-5.54173 -57.44067,-12.36299 -71.21974,-25.19227 -6.78517,-6.31747 -4.16175,-14.90776 -5.38717,-23.78788 -0.76774,-5.56359 -6.58226,-10.91949 -6.19923,-16.89863 2.9836,-46.574433 64.20916,-84.503332 143.41517,-84.503335 79.20602,0 143.41518,37.833432 143.41518,84.503335 z"
           id="path1469"
           inkscape:connector-curvature="0"
           sodipodi:nodetypes="sssssssssss" />
        <path
           style="fill:#e6e6e6;stroke:none;stroke-width:1.52275646px;stroke-linecap:butt;stroke-linejoin:miter;stroke-opacity:1"
           d="m 605.63124,157.03541 -7.40833,-37.57083 -22.42196,8.80114 -5.88846,2.31136 -6.96995,-22.38777 -24.78005,-14.918477 48.94792,-63.764582 66.675,47.360416 z"
           id="path1463"
           inkscape:connector-curvature="0"
           sodipodi:nodetypes="ccccccccc" />
        <path
           style="fill:#b3b3b3;fill-opacity:1;stroke:none;stroke-width:1.52275646px;stroke-linecap:butt;stroke-linejoin:miter;stroke-opacity:1"
           d="m 652.93946,76.609548 27.31492,6.361014 4.77078,96.818388 -51.16877,-0.65482 z"
           id="path1457"
           inkscape:connector-curvature="0"
           sodipodi:nodetypes="ccccc" />
        <path
           style="fill:#b3b3b3;fill-opacity:1;stroke:none;stroke-width:1.52275646px;stroke-linecap:butt;stroke-linejoin:miter;stroke-opacity:1"
           d="m 634.62815,63.139163 -47.65003,-33.897495 31.7954,-18.165459 11.97757,0.244166 -10.83235,11.174418 0.26459,7.276041 31.08854,-0.661458 21.96041,23.151041 -36.64479,11.90625 z"
           id="path1455"
           inkscape:connector-curvature="0"
           sodipodi:nodetypes="cccccccccc" />
        <path
           style="fill:#a9a9a9;fill-opacity:1;stroke:none;stroke-width:1.52275646px;stroke-linecap:butt;stroke-linejoin:miter;stroke-opacity:1"
           d="m 711.16471,57.374435 -30.53613,27.092838 -28.81167,-7.10937 -17.21215,-14.21874 37.41772,-11.225318 17.3057,-9.728613 z"
           id="path1449"
           inkscape:connector-curvature="0"
           sodipodi:nodetypes="ccccccc" />
        <path
           style="fill:#b3b3b3;fill-opacity:1;stroke:none;stroke-width:1.52275646px;stroke-linecap:butt;stroke-linejoin:miter;stroke-opacity:1"
           d="m 711.16845,57.460358 26.52216,24.294128 17.39925,-6.641647 22.84031,-9.982102 23.93187,-24.442213 -15.28683,-30.7013447 -18.99173,0.4274887 18.24139,12.485149 -23.7606,24.314784 -17.2322,-0.276604 -17.41158,19.262753 z"
           id="path1443"
           inkscape:connector-curvature="0"
           sodipodi:nodetypes="cccccccccccc" />
        <path
           style="opacity:1;fill:#ececec;fill-opacity:1;stroke:none;stroke-width:1.52275646px;stroke-linecap:butt;stroke-linejoin:miter;stroke-opacity:1"
           d="M 692.82031,-43.000001 718.80107,-27.999999 692.82031,-13 666.83955,-27.999999 Z"
           id="path1389"
           inkscape:connector-curvature="0" />
        <path
           style="fill:#b3b3b3;stroke:none;stroke-width:1.52275646px;stroke-linecap:butt;stroke-linejoin:miter;stroke-opacity:1"
           d="m 692.82031,-13 8.66027,25 17.32049,-10 25.98076,4.9999999 -0.28152,-14.6443131 -25.69924,-20.3556858 z"
           id="path1391"
           inkscape:connector-curvature="0"
           sodipodi:nodetypes="ccccccc" />
        <path
           style="fill:#f2f2f2;stroke:none;stroke-width:1.52275646px;stroke-linecap:butt;stroke-linejoin:miter;stroke-opacity:1"
           d="M 692.82031,-13 666.83955,-27.999999 647.82032,-8.980762 658.17929,17 684.16005,2 701.48058,12 Z"
           id="path1393"
           inkscape:connector-curvature="0" />
        <path
           style="fill:#808080;stroke:none;stroke-width:1.52275646px;stroke-linecap:butt;stroke-linejoin:miter;stroke-opacity:1"
           d="M 701.48058,12 710.14081,56.999999 727.46134,67 744.78183,47.000001 736.13038,5.324993 718.82888,1.9835025 Z"
           id="path1397"
           inkscape:connector-curvature="0" />
        <path
           style="fill:#4d4d4d;fill-opacity:1;stroke:none;stroke-width:1.52275646px;stroke-linecap:butt;stroke-linejoin:miter;stroke-opacity:1"
           d="m 744.80414,47.016743 17.32711,0.105014 -21.58016,-20.47752 z"
           id="path1401"
           inkscape:connector-curvature="0" />
        <path
           style="fill:#808080;stroke:none;stroke-width:1.52275646px;stroke-linecap:butt;stroke-linejoin:miter;stroke-opacity:1"
           d="M 762.15689,47.130752 785.74507,22.948515 744.50058,-7.6429003 744.81827,7.0328659 736.09326,5.3621206 740.5857,26.74766 Z"
           id="path1405"
           inkscape:connector-curvature="0"
           sodipodi:nodetypes="ccccccc" />
        <path
           style="fill:#8c8c8c;fill-opacity:1;stroke:none;stroke-width:1.52275646px;stroke-linecap:butt;stroke-linejoin:miter;stroke-opacity:1"
           d="M 710.14101,57.025277 689.42049,42.263749 690.85411,5.8312675 701.47866,12.001012 Z"
           id="path1407"
           inkscape:connector-curvature="0"
           sodipodi:nodetypes="ccccc" />
        <path
           style="fill:#4d4d4d;fill-opacity:1;stroke:none;stroke-width:1.52275646px;stroke-linecap:butt;stroke-linejoin:miter;stroke-opacity:1"
           d="m 689.45124,42.325264 -17.36608,9.929108 18.44113,-32.988066 z"
           id="path1409"
           inkscape:connector-curvature="0"
           sodipodi:nodetypes="cccc" />
        <path
           style="fill:#8c8c8c;fill-opacity:1;stroke:none;stroke-width:1.52275646px;stroke-linecap:butt;stroke-linejoin:miter;stroke-opacity:1"
           d="m 672.13519,52.109869 -21.14668,-22.583462 -16.90623,0.613606 21.03758,-21.063836 3.06172,7.913434 0.002,5e-4 25.97512,-14.9714036 6.67817,3.8264083 -0.32643,13.5134633 z"
           id="path1413"
           inkscape:connector-curvature="0"
           sodipodi:nodetypes="cccccccccc" />
        <path
           style="fill:#303030;fill-opacity:1;stroke:none;stroke-width:1.52275646px;stroke-linecap:butt;stroke-linejoin:miter;stroke-opacity:1"
           d="m 634.28916,29.977768 h -13.96 L 654.93217,9.2605269"
           id="path1415"
           inkscape:connector-curvature="0"
           sodipodi:nodetypes="ccc" />
        <path
           style="fill:#8c8c8c;fill-opacity:1;stroke:none;stroke-width:1.52275646px;stroke-linecap:butt;stroke-linejoin:miter;stroke-opacity:1"
           d="m 620.1538,30.057156 -1.89024,-7.665942 29.60053,-31.3726102 0.0132,0.013126 7.29602,18.0816553 z"
           id="path1417"
           inkscape:connector-curvature="0"
           sodipodi:nodetypes="cccccc" />
        <path
           style="fill:#391700;fill-opacity:1;stroke:none;stroke-width:1.52275646px;stroke-linecap:butt;stroke-linejoin:miter;stroke-opacity:1"
           d="m 685.86704,179.88249 c 0,0 22.51839,22.65657 36.45929,21.04978 24.67318,-2.84376 36.05323,-6.75293 45.89137,-10.42706 13.41663,-5.01054 30.78456,-14.03282 41.40729,-22.225 20.63784,-15.91578 -77.12604,12.83229 -77.12604,12.83229 l -20.90208,-12.43542 -27.38438,11.1125 z"
           id="path1755"
           inkscape:connector-curvature="0"
           sodipodi:nodetypes="cssscccc" />
        <path
           style="fill:#cccccc;fill-opacity:1;stroke:none;stroke-width:1.52275646px;stroke-linecap:butt;stroke-linejoin:miter;stroke-opacity:1"
           d="m 737.78416,81.567399 -5.89329,99.811801 96.16357,-16.08963 -10.85116,-52.759 34.05014,28.43748 9.35445,-23.94735 -59.12003,-76.706352 -23.57316,24.695702 c 0,0 -35.26621,15.06064 -40.13052,16.557349 z"
           id="path1445"
           inkscape:connector-curvature="0"
           sodipodi:nodetypes="ccccccccc" />
        <path
           style="fill:#4d4d4d;fill-opacity:1;stroke:none;stroke-width:1.52275646px;stroke-linecap:butt;stroke-linejoin:miter;stroke-opacity:1"
           d="m 828.01353,165.36979 5.81479,-19.71721 -16.79084,-33.08484 34.12709,28.46038 -17.22569,4.79554 -16.90556,-33.50283 z"
           id="path1447"
           inkscape:connector-curvature="0"
           sodipodi:nodetypes="ccccccc" />
        <path
           style="fill:#4d4d4d;fill-opacity:1;stroke:none;stroke-width:1.52275646px;stroke-linecap:butt;stroke-linejoin:miter;stroke-opacity:1"
           d="m 711.03228,57.48995 0.23386,111.98088 -26.52448,10.58334 -4.15986,-95.680443 z"
           id="path1451"
           inkscape:connector-curvature="0"
           sodipodi:nodetypes="ccccc" />
        <path
           style="fill:#e6e6e6;fill-opacity:1;stroke:none;stroke-width:1.52275646px;stroke-linecap:butt;stroke-linejoin:miter;stroke-opacity:1"
           d="m 711.0305,57.502475 0.51263,0.305924 26.14747,23.852542 -5.61266,99.718259 -21.23455,-12.06722 z"
           id="path1453"
           inkscape:connector-curvature="0" />
        <path
           style="fill:#cccccc;fill-opacity:1;stroke:none;stroke-width:1.52275646px;stroke-linecap:butt;stroke-linejoin:miter;stroke-opacity:1"
           d="m 653.03299,77.451446 -48.17534,79.606224 29.18585,22.26355 z"
           id="path1459"
           inkscape:connector-curvature="0" />
        <path
           style="fill:#cccccc;fill-opacity:1;stroke:none;stroke-width:1.52275646px;stroke-linecap:butt;stroke-linejoin:miter;stroke-opacity:1"
           d="M 569.87207,130.49109 598.216,119.45285 V 84.560816 l -35.17266,23.760264 6.92228,22.07646 28.15685,-46.023813 z"
           id="path1465"
           inkscape:connector-curvature="0"
           sodipodi:nodetypes="ccccccc" />
        <path
           style="opacity:0.1;fill:#000000;fill-opacity:1;stroke:#000000;stroke-width:1.52275646px;stroke-linecap:butt;stroke-linejoin:miter;stroke-opacity:1"
           d="m 716.92378,-28.534283 27.76303,20.9484826 24.08046,18.1998214 18.16917,-0.74033 14.43492,30.466339 59.98486,77.8032 L 995.56594,71.755735 970.54072,55.694007 692.72884,-43.075824 Z"
           id="path1473"
           inkscape:connector-curvature="0"
           sodipodi:nodetypes="cccccccccc" />
        <path
           style="fill:#933b00;fill-opacity:1;stroke:none;stroke-width:1.52275646px;stroke-linecap:butt;stroke-linejoin:miter;stroke-opacity:1"
           d="m 600.29089,130.22005 c 8.66025,-5 5.92689,-3.22005 14.58715,-8.22005 l 5.74983,10.29167 -15.71971,24.61479 -2.04614,-13.24579 z"
           id="path1723"
           inkscape:connector-curvature="0"
           sodipodi:nodetypes="cccccc" />
        <path
           style="fill:#602700;fill-opacity:1;stroke:none;stroke-width:1.52275646px;stroke-linecap:butt;stroke-linejoin:miter;stroke-opacity:1"
           d="m 545.2036,103.18103 -6.80182,-7.635287 17.32051,-10 8.66025,5 -4.47492,17.867917 z"
           id="path1723-1"
           inkscape:connector-curvature="0"
           sodipodi:nodetypes="cccccc" />
        <path
           style="fill:#4d1f00;fill-opacity:1;stroke:none;stroke-width:1.52275646px;stroke-linecap:butt;stroke-linejoin:miter;stroke-opacity:1"
           d="m 752.08782,178.65927 2.83943,-16.37708 7.26634,-5.2375 17.92067,16.90625 -10.42805,15.08979 z"
           id="path1723-0"
           inkscape:connector-curvature="0"
           sodipodi:nodetypes="cccccc" />
        <path
           style="fill:#331500;fill-opacity:1;stroke:none;stroke-width:1.52275646px;stroke-linecap:butt;stroke-linejoin:miter;stroke-opacity:1"
           d="m 545.36347,103.36323 18.89594,-12.628489 -4.30303,17.586339 z"
           id="path1757"
           inkscape:connector-curvature="0" />
        <path
           style="fill:#331500;fill-opacity:1;stroke:none;stroke-width:1.52275646px;stroke-linecap:butt;stroke-linejoin:miter;stroke-opacity:1"
           d="m 604.92554,135.75819 14.08773,-1.35097 -14.13881,22.66773 z"
           id="path1757-9"
           inkscape:connector-curvature="0"
           sodipodi:nodetypes="cccc" />
        <path
           style="fill:#391700;fill-opacity:1;stroke:none;stroke-width:1.52275646px;stroke-linecap:butt;stroke-linejoin:miter;stroke-opacity:1"
           d="m 754.76246,162.15584 14.96709,27.12786 10.75759,-15.38805 -18.2879,-17.21216 z"
           id="path1775"
           inkscape:connector-curvature="0"
           sodipodi:nodetypes="ccccc" />
      </g>
    </g>
  </g>
</svg>
